<svg xmlns="http://www.w3.org/2000/svg" xmlns:xlink="http://www.w3.org/1999/xlink" id="Layer_1" x="0px" y="0px" width="50px" height="50px" viewBox="0 0 50 50" xml:space="preserve"><g>	<path fill-rule="evenodd" clip-rule="evenodd" d="M18.072,40.553c0-0.932-0.062-1.868,0.013-2.794  c0.146-1.81-0.475-3.234-1.633-4.647c-1.268-1.547-2.404-3.274-3.239-5.089c-2.214-4.811-1.168-9.314,1.994-13.308  c3.294-4.164,7.795-5.363,12.816-4.145c5.08,1.233,8.364,4.637,9.375,9.721c0.67,3.365,0.388,6.819-2.079,9.689  c-0.868,1.011-1.687,2.122-2.249,3.318c-0.621,1.318-1.179,2.764-1.305,4.193c-0.222,2.52-0.048,5.071-0.133,7.605  c-0.068,2.067-2.064,4.004-4.106,4.059c-1.696,0.045-3.395,0.022-5.093,0.01c-2.438-0.018-4.307-1.811-4.394-4.262  c-0.052-1.448-0.009-2.9-0.009-4.351C18.044,40.553,18.058,40.553,18.072,40.553z M29.94,41.686c0-1.752-0.168-3.318,0.051-4.828  c0.194-1.339,0.652-2.706,1.297-3.897c0.728-1.344,1.849-2.469,2.705-3.752c3.775-5.662,2.175-12.419-3.692-15.824  c-4.225-2.452-9.512-1.524-12.7,1.058c-2.954,2.392-5.222,7.669-3.05,12.026c0.78,1.565,1.752,3.034,2.618,4.558  c0.761,1.339,1.444,2.724,2.27,4.019c0.262,0.412,0.863,0.845,1.318,0.856c1.754,0.044,3.512-0.096,5.27-0.13  c0.693-0.015,1.626-0.207,1.623,0.894c-0.003,1.088-0.926,0.904-1.626,0.908c-2.005,0.013-4.01,0.005-6.139,0.005  c0,2.522-0.13,5.002,0.05,7.458c0.103,1.41,0.977,2.499,2.635,2.528c1.346,0.024,2.692,0.075,4.039,0.059  c2.395-0.029,3.558-1.525,3.075-4.293c-2.051,0-4.161,0.048-6.266-0.036c-0.464-0.018-0.91-0.496-1.364-0.763  c0.47-0.281,0.931-0.785,1.412-0.807C25.527,41.633,27.596,41.686,29.94,41.686z"></path>	<path fill-rule="evenodd" clip-rule="evenodd" style="--dsn-color-icon : var(--heading-color)" d="M12.989,10.347c-0.546,0.164-1.233,0.569-1.437,0.398  C10.38,9.76,9.294,8.665,8.257,7.536C8.094,7.359,8.201,6.679,8.414,6.484c0.216-0.197,0.87-0.252,1.07-0.074  c1.073,0.952,2.07,1.99,3.078,3.015C12.695,9.56,12.735,9.785,12.989,10.347z"></path>	<path fill-rule="evenodd" clip-rule="evenodd" style="--dsn-color-icon : var(--heading-color)" d="M37.373,10.994c-0.099-0.492-0.441-1.185-0.246-1.411  c1.004-1.159,2.125-2.219,3.264-3.25c0.158-0.143,0.743-0.042,0.94,0.146c0.202,0.194,0.346,0.792,0.214,0.937  c-1.069,1.167-2.205,2.273-3.336,3.383C38.117,10.89,37.918,10.873,37.373,10.994z"></path>	<path fill-rule="evenodd" clip-rule="evenodd" style="--dsn-color-icon : var(--heading-color)" d="M25.748,3.132c-0.001,0.618,0.112,1.265-0.041,1.842  c-0.103,0.389-0.58,0.678-0.889,1.013c-0.276-0.315-0.765-0.613-0.792-0.947c-0.096-1.227-0.11-2.473,0.001-3.697  c0.033-0.363,0.578-0.679,0.888-1.017c0.277,0.37,0.69,0.704,0.799,1.119C25.854,1.973,25.749,2.566,25.748,3.132z"></path>	<path fill-rule="evenodd" clip-rule="evenodd" style="--dsn-color-icon : var(--heading-color)" d="M43.725,23.819c-0.406-0.043-0.854,0.003-1.205-0.158  c-0.268-0.123-0.608-0.546-0.565-0.769c0.06-0.315,0.435-0.796,0.692-0.807c1.327-0.057,2.663-0.028,3.989,0.072  c0.305,0.022,0.58,0.445,0.869,0.684c-0.339,0.265-0.655,0.713-1.021,0.758c-0.905,0.11-1.835,0.036-2.755,0.036  C43.728,23.696,43.726,23.758,43.725,23.819z"></path>	<path fill-rule="evenodd" clip-rule="evenodd" style="--dsn-color-icon : var(--heading-color)" d="M3.5,24.01c-0.448-0.367-0.896-0.733-1.343-1.101  c0.493-0.293,0.963-0.779,1.482-0.837c0.958-0.106,1.954-0.026,2.915,0.112c0.416,0.061,0.783,0.457,1.172,0.701  c-0.37,0.255-0.72,0.687-1.113,0.731c-0.962,0.107-1.945,0.035-2.92,0.035C3.629,23.771,3.564,23.89,3.5,24.01z"></path>	<path fill-rule="evenodd" clip-rule="evenodd" style="--dsn-color-icon : var(--heading-color)" d="M25.306,16.083c3.552,0.405,6.106,2.751,6.305,6.291  c0.022,0.39-0.47,0.808-0.723,1.212c-0.27-0.31-0.708-0.583-0.783-0.935c-0.595-2.77-2.146-4.448-5.048-4.813  c-0.33-0.04-0.586-0.662-0.876-1.014C24.64,16.521,25.099,16.218,25.306,16.083z"></path></g></svg>