<svg xmlns="http://www.w3.org/2000/svg" xmlns:xlink="http://www.w3.org/1999/xlink" id="Layer_1" x="0px" y="0px" width="50px" height="50px" viewBox="0 0 50 50" xml:space="preserve"><g>	<path fill-rule="evenodd" clip-rule="evenodd" d="M20.944,14.012c-4.79,0-9.443,0-14.079,0c-0.452,1.854-1.236,2.1-4.715,1.769  c-1.399-0.134-1.274-1.091-1.086-1.813c0.312-1.194-1.164-3.078,1.064-3.523c3.126-0.625,4.292-0.086,4.752,1.688  c4.629,0,9.276,0,13.868,0c0.118-0.163,0.229-0.245,0.233-0.331c0.09-2.241-0.195-2.33,2.678-2.304  c0.658,0.006,1.317,0.002,1.977,0.001c2.706-0.002,2.706-0.002,3.098,2.574c4.658,0,9.343,0,14.028,0  c0.466-1.725,1.538-2.251,4.723-1.621c2.313,0.458,0.729,2.421,1.086,3.657c0.234,0.809,0.101,1.608-1.242,1.682  c-3.792,0.208-4.104,0.136-4.549-1.773c-4.639,0-9.293,0-13.927,0c-0.084,0.115-0.196,0.196-0.201,0.283  c-0.151,2.852-0.224,2.339-2.926,2.396c-0.933,0.02-1.873-0.059-2.8,0.018c-1.438,0.122-2.06-0.415-1.887-1.776  C21.072,14.691,20.992,14.435,20.944,14.012z M22.922,14.82c1.354,0,2.532,0,3.76,0c0-1.218,0-2.326,0-3.482  c-1.313,0-2.524,0-3.76,0C22.922,12.551,22.922,13.624,22.922,14.82z M2.87,13.928c0.7,0,1.222,0,1.799,0c0-0.619,0-1.152,0-1.81  c-0.681,0.039-1.241,0.071-1.799,0.104C2.87,12.868,2.87,13.322,2.87,13.928z M44.924,14.051c0.724-0.057,1.244-0.097,1.8-0.141  c0-0.62,0-1.11,0-1.667c-0.65,0-1.208,0-1.8,0C44.924,12.848,44.924,13.344,44.924,14.051z"></path>	<path fill-rule="evenodd" clip-rule="evenodd" d="M1.02,36.725c0.056-4.04-0.59-3.539,3.75-3.533  c4.271,0.006,3.804-0.574,3.787,3.667c-0.017,4.106,0.509,3.49-3.765,3.521C1.019,40.406,1.019,40.385,1.02,36.725z M6.617,38.565  c0-1.231,0-2.34,0-3.511c-1.272,0-2.45,0-3.699,0c0,1.21,0,2.318,0,3.511C4.168,38.565,5.308,38.565,6.617,38.565z"></path>	<path fill-rule="evenodd" clip-rule="evenodd" d="M48.61,36.829c-0.063,4.104,0.604,3.548-3.725,3.545  c-4.384-0.005-3.819,0.6-3.825-3.618c-0.005-4.118-0.47-3.565,3.739-3.564C49.19,33.191,48.553,32.618,48.61,36.829z M42.997,38.54  c1.304,0,2.48,0,3.705,0c0-1.218,0-2.325,0-3.477c-1.287,0-2.464,0-3.705,0C42.997,36.242,42.997,37.313,42.997,38.54z"></path>	<path fill-rule="evenodd" clip-rule="evenodd" style="--dsn-color-icon : var(--heading-color)" d="M3.907,30.129c0.707-4.828,2.875-8.57,6.166-11.771  c0.722-0.703,1.485-1.393,2.334-1.945c0.389-0.254,1.032-0.162,1.56-0.227c-0.164,0.507-0.158,1.205-0.519,1.491  c-3.182,2.508-5.611,5.502-6.952,9.222c-0.351,0.972-0.454,2.024-0.816,2.99c-0.182,0.484-0.693,0.857-1.055,1.282  C4.338,30.754,4.049,30.335,3.907,30.129z"></path>	<path fill-rule="evenodd" clip-rule="evenodd" style="--dsn-color-icon : var(--heading-color)" d="M45.727,30.116c-0.137,0.204-0.422,0.629-0.708,1.055  c-0.359-0.42-0.962-0.804-1.04-1.267c-0.854-5.004-3.428-8.997-7.643-12.118c-0.414-0.307-0.467-1.046-0.688-1.585  c0.575,0.087,1.295-0.005,1.704,0.287C42.037,19.831,44.871,24.229,45.727,30.116z"></path></g></svg>