<?xml version="1.0" encoding="UTF-8"?>
<svg width="110px" height="38px" viewBox="0 0 110 38" version="1.1" xmlns="http://www.w3.org/2000/svg" xmlns:xlink="http://www.w3.org/1999/xlink">
    <!-- Generator: Sketch 48.2 (47327) - http://www.bohemiancoding.com/sketch -->
    <title>logo-dark</title>
    <desc>Created with Sketch.</desc>
    <defs></defs>
    <g id="Symbols" stroke="none" stroke-width="1" fill="none" fill-rule="evenodd">
        <g id="logo-dark" fill="#45a735" fill-rule="nonzero">
            <path d="M45.6730041,2.780012 L40.3018785,15.8527375 L40.3018785,25.9593824 C40.194456,31.6718338 44.7062015,36.3955918 50.2921721,36.5054466 C50.2921721,36.5054466 50.2921721,36.5054466 50.3995946,36.5054466 L50.3995946,11.7881085 C50.2921721,8.16289896 48.5734119,4.75739905 45.6730041,2.780012" id="Shape"></path>
            <path d="M92.3937991,27.8016765 C87.6338429,27.8016765 83.6487633,24.0044653 83.6487633,19.3393202 C83.6487633,14.6741751 87.5231462,10.7684721 92.2831024,10.7684721 C97.0430587,10.7684721 101.028138,14.5656833 101.028138,19.2308284 C101.028138,19.2308284 101.028138,19.2308284 101.028138,19.3393202 C101.028138,24.0044653 97.1537553,27.8016765 92.3937991,27.8016765 C92.3937991,27.8016765 92.3937991,27.8016765 92.3937991,27.8016765 Z M63.7233652,1.98064061 C60.9559488,1.98064061 58.299229,3.06555808 56.3066892,5.01840953 C52.2109129,9.14109593 52.2109129,15.7590925 56.4173859,19.7732872 L57.1922625,20.5327294 L62.9484886,26.1743003 L52.4323063,26.1743003 L52.4323063,36.589508 L63.0591852,36.589508 C65.8266016,36.589508 68.594018,35.5045906 70.4758612,33.5517391 C74.2395475,29.7545279 74.5716375,23.8959736 71.2507378,19.6647954 C71.1400411,19.5563037 70.8079512,19.1223367 70.6972545,19.0138449 C69.3688946,17.711944 66.6014782,14.9996503 63.8340618,12.2873566 L76.342784,12.2873566 C72.468401,20.9666964 76.6748739,31.0564289 85.5306064,34.8536401 C94.3863389,38.6508512 104.681128,34.5281648 108.555511,25.848825 C112.429894,17.1694852 108.223421,7.07975273 99.3676884,3.28254158 C97.1537553,2.30611585 94.8291255,1.87214886 92.3937991,1.87214886 L63.7233652,1.98064061 Z" id="Shape"></path>
            <path d="M29.7356608,7.08802315 L21.9451372,25.2444293 L14.1546135,7.08802315 C11.6309227,1.76069439 5.3765586,-0.522446508 0,1.97813638 C0,1.97813638 11.9600998,29.1583852 12.2892768,29.8107111 C13.4962594,32.093852 15.361596,33.833388 17.7755611,34.8118769 C19.0922693,35.3554819 20.5187032,35.6816449 21.9451372,35.6816449 C23.3715711,35.6816449 24.798005,35.3554819 26.1147132,34.9205979 C28.4189526,33.942109 30.394015,32.093852 31.6009975,29.9194321 C31.9301746,29.2671062 44,1.97813638 44,1.97813638 C42.5735661,1.32581041 41.0374065,0.999647424 39.5012469,0.999647424 C35.3316708,0.999647424 31.4912718,3.39150932 29.7356608,7.08802315 Z" id="Shape"></path>
        </g>
    </g>
</svg>