<svg width="1826" height="1138" viewBox="0 0 1826 1138" fill="none" xmlns="http://www.w3.org/2000/svg">
<g opacity="0.3">
<path d="M184.258 850.273C173.357 839.372 173.357 821.698 184.258 810.797C195.16 799.896 212.834 799.896 223.735 810.797C234.636 821.698 234.636 839.372 223.735 850.273C212.834 861.174 195.16 861.174 184.258 850.273Z" stroke="#034833" stroke-width="3.00923" stroke-miterlimit="10" stroke-linecap="round" stroke-dasharray="6.3 11.82"/>
<path d="M1823.77 1136.19C1787.17 1031.4 1678.67 964.496 1568.86 948.213C1459.05 931.93 1347.56 958.053 1241.24 989.936C1134.92 1021.82 1029.08 1059.96 918.421 1068.73C807.762 1077.5 688.538 1052.54 609.855 974.225C555.744 920.336 521.59 842.963 452.489 810.416C389.959 780.988 316.796 796.847 248.747 808.81C180.698 820.773 102.901 825.776 50.2669 781.117C-3.1608 735.757 -9.88078 651.739 18.55 587.677C46.9808 523.616 103.122 476.262 161.258 437.123C219.393 397.985 281.848 364.237 332.821 316.127C383.793 268.016 423.005 201.277 417.744 131.4C412.482 61.5235 350.156 -5.43652 280.538 2.6681" stroke="#034833" stroke-width="3.00923" stroke-miterlimit="10" stroke-linecap="round" stroke-dasharray="6.3 11.82"/>
</g>
</svg>
